<svg xmlns="http://www.w3.org/2000/svg" viewBox="0 0 1280 720" role="img" aria-label="school rooftop dusk visual novel background">
  <defs>
    <linearGradient id="sky" x1="0" y1="0" x2="0" y2="1">
      <stop offset="0" stop-color="#4b5879"/>
      <stop offset=".45" stop-color="#d08a63"/>
      <stop offset="1" stop-color="#f3c47c"/>
    </linearGradient>
  </defs>
  <rect width="1280" height="720" fill="url(#sky)"/>
  <circle cx="1042" cy="180" r="76" fill="#ffe4a2" opacity=".82"/>
  <path d="M0 404 L170 344 L302 386 L460 318 L642 384 L812 330 L994 398 L1280 310 V720 H0Z" fill="#394252" opacity=".78"/>
  <path d="M0 494 H1280 V720 H0Z" fill="#42474b"/>
  <path d="M0 476 H1280" stroke="#e5c189" stroke-width="18"/>
  <g stroke="#26313c" stroke-width="10" opacity=".84">
    <path d="M0 442 H1280"/>
    <path d="M46 354 V492 M146 354 V492 M246 354 V492 M346 354 V492 M446 354 V492 M546 354 V492 M646 354 V492 M746 354 V492 M846 354 V492 M946 354 V492 M1046 354 V492 M1146 354 V492 M1246 354 V492"/>
  </g>
  <g opacity=".58" fill="#f2d39b">
    <rect x="112" y="636" width="140" height="4"/>
    <rect x="400" y="604" width="220" height="5"/>
    <rect x="776" y="650" width="270" height="5"/>
  </g>
  <path d="M0 0 H1280 V720 H0Z" fill="#15151e" opacity=".12"/>
</svg>
